<?xml version="1.0" encoding="UTF-8" standalone="no"?>
<svg
   data-bbox="27 20 146 160"
   viewBox="0 0 200 200"
   height="200"
   width="200"
   data-type="color"
   version="1.1"
   id="svg56"
   sodipodi:docname="lineyGuy.svg"
   inkscape:version="1.1.2 (b8e25be833, 2022-02-05)"
   xmlns:inkscape="http://www.inkscape.org/namespaces/inkscape"
   xmlns:sodipodi="http://sodipodi.sourceforge.net/DTD/sodipodi-0.dtd"
   xmlns="http://www.w3.org/2000/svg"
   xmlns:svg="http://www.w3.org/2000/svg">
  <defs
     id="defs60" />
  <sodipodi:namedview
     id="namedview58"
     pagecolor="#ffffff"
     bordercolor="#666666"
     borderopacity="1.0"
     inkscape:pageshadow="2"
     inkscape:pageopacity="0.0"
     inkscape:pagecheckerboard="0"
     showgrid="false"
     inkscape:zoom="4.04"
     inkscape:cx="99.876238"
     inkscape:cy="100.12376"
     inkscape:window-width="1920"
     inkscape:window-height="1001"
     inkscape:window-x="-9"
     inkscape:window-y="-9"
     inkscape:window-maximized="1"
     inkscape:current-layer="svg56" />
  <g
     id="g54"
     style="fill:#86615c;fill-opacity:1">
    <path
       d="M118 99.9v1.1l-87.4.3v-1.1c0 .1 87.4-.3 87.4-.3z"
       fill="#111556"
       data-color="1"
       id="path2"
       style="fill:#86615c;fill-opacity:1" />
    <path
       d="M118.5 100.4l35 75.9-1 .5-35-75.9 1-.5z"
       fill="#111556"
       data-color="1"
       id="path4"
       style="fill:#86615c;fill-opacity:1" />
    <path
       d="M169.5 23l1 .6-52.2 77.2-1-.6L169.5 23z"
       fill="#111556"
       data-color="1"
       id="path6"
       style="fill:#86615c;fill-opacity:1" />
    <path
       d="M118.3 100.5l2.9 69.1H120l-2.9-69.1h1.2z"
       fill="#111556"
       data-color="1"
       id="path8"
       style="fill:#86615c;fill-opacity:1" />
    <path
       d="M126.1 35.6l1.1.2-8.9 64.8-1.1-.2c-.1 0 8.9-64.8 8.9-64.8z"
       fill="#111556"
       data-color="1"
       id="path10"
       style="fill:#86615c;fill-opacity:1" />
    <path
       d="M71 66.8l47 33.2-.7.9-47-33.2c.1 0 .7-.9.7-.9z"
       fill="#111556"
       data-color="1"
       id="path12"
       style="fill:#86615c;fill-opacity:1" />
    <path
       d="M103.1 74l15 26.1-1 .6-15-26.1 1-.6z"
       fill="#111556"
       data-color="1"
       id="path14"
       style="fill:#86615c;fill-opacity:1" />
    <path
       d="M152.1 86.5l.4 1.1-34.6 13.4-.4-1.1 34.6-13.4z"
       fill="#111556"
       data-color="1"
       id="path16"
       style="fill:#86615c;fill-opacity:1" />
    <path
       d="M117.9 100l31.4 13.3-.5 1.1-31.3-13.4.4-1z"
       fill="#111556"
       data-color="1"
       id="path18"
       style="fill:#86615c;fill-opacity:1" />
    <path
       d="M117.3 100.2l.9.7L88 142.1l-.9-.7 30.2-41.2z"
       fill="#111556"
       data-color="1"
       id="path20"
       style="fill:#86615c;fill-opacity:1" />
    <path
       d="M117.4 100l.6 1-22.6 12.5-.6-1 22.6-12.5z"
       fill="#111556"
       data-color="1"
       id="path22"
       style="fill:#86615c;fill-opacity:1" />
    <path
       d="M117.1 100.4l1.1.3-7.7 32.1-1.1-.3 7.7-32.1z"
       fill="#111556"
       data-color="1"
       id="path24"
       style="fill:#86615c;fill-opacity:1" />
    <path
       d="M125.1 80.4l1.1.4-7.9 19.8-1.1-.4 7.9-19.8z"
       fill="#111556"
       data-color="1"
       id="path26"
       style="fill:#86615c;fill-opacity:1" />
    <path
       d="M126.8 36.4c-1.2 0-2.1-.9-2.1-2.1s.9-2.1 2.1-2.1c1.2 0 2.1.9 2.1 2.1 0 1.1-1 2.1-2.1 2.1zm0-3.1c-.5 0-.9.4-.9.9s.4.9 1 .9c.5 0 .9-.4.9-.9-.1-.4-.5-.9-1-.9z"
       fill="#111556"
       data-color="1"
       id="path28"
       style="fill:#86615c;fill-opacity:1" />
    <path
       d="M170.9 24.2c-1.2 0-2.1-.9-2.1-2.1s.9-2.1 2.1-2.1c1.2 0 2.1.9 2.1 2.1 0 1.2-.9 2.1-2.1 2.1zm0-3.1c-.5 0-.9.4-.9.9s.4.9.9.9.9-.4.9-.9c0-.4-.4-.8-.9-.9z"
       fill="#111556"
       data-color="1"
       id="path30"
       style="fill:#86615c;fill-opacity:1" />
    <path
       d="M153.6 88.5c-1.2 0-2.1-.9-2.1-2.1 0-1.2.9-2.1 2.1-2.1 1.2 0 2.1.9 2.1 2.1.1 1.2-.9 2.1-2.1 2.1zm0-3c-.5 0-.9.4-.9.9s.4.9.9.9.9-.4.9-.9c.1-.5-.3-.9-.9-.9z"
       fill="#111556"
       data-color="1"
       id="path32"
       style="fill:#86615c;fill-opacity:1" />
    <path
       d="M150.6 116.5c-1.2 0-2.1-.9-2.1-2.1 0-1.2.9-2.1 2.1-2.1 1.2 0 2.1.9 2.1 2.1 0 1.1-.9 2.1-2.1 2.1zm0-3.1c-.5 0-.9.4-.9.9s.4.9.9.9.9-.4.9-.9c.1-.4-.3-.9-.9-.9z"
       fill="#111556"
       data-color="1"
       id="path34"
       style="fill:#86615c;fill-opacity:1" />
    <path
       d="M153.6 180c-1.2 0-2.1-.9-2.1-2.1 0-1.2.9-2.1 2.1-2.1 1.2 0 2.1.9 2.1 2.1.1 1.2-.9 2.1-2.1 2.1zm0-3c-.5 0-.9.4-.9.9s.4.9.9.9.9-.4.9-.9c.1-.5-.3-.9-.9-.9z"
       fill="#111556"
       data-color="1"
       id="path36"
       style="fill:#86615c;fill-opacity:1" />
    <path
       d="M120.8 173.2c-1.2 0-2.1-.9-2.1-2.1s.9-2.1 2.1-2.1c1.2 0 2.1.9 2.1 2.1 0 1.2-1 2.1-2.1 2.1zm0-3c-.5 0-.9.4-.9.9s.4.9.9.9.9-.4.9-.9-.4-.9-.9-.9z"
       fill="#111556"
       data-color="1"
       id="path38"
       style="fill:#86615c;fill-opacity:1" />
    <path
       d="M86.7 145c-1.2 0-2.1-.9-2.1-2.1 0-1.2.9-2.1 2.1-2.1 1.2 0 2.1.9 2.1 2.1 0 1.2-1 2.1-2.1 2.1zm0-3c-.5 0-.9.4-.9.9s.4.9.9.9.9-.4.9-.9-.4-.9-.9-.9z"
       fill="#111556"
       data-color="1"
       id="path40"
       style="fill:#86615c;fill-opacity:1" />
    <path
       d="M109.7 136.1c-1.2 0-2.1-.9-2.1-2.1s.9-2.1 2.1-2.1c1.2 0 2.1.9 2.1 2.1 0 1.1-.9 2.1-2.1 2.1zm0-3.1c-.5 0-1 .4-1 .9s.4.9.9.9 1-.4 1-.9c.1-.5-.3-.9-.9-.9z"
       fill="#111556"
       data-color="1"
       id="path42"
       style="fill:#86615c;fill-opacity:1" />
    <path
       d="M93.9 115.9c-1.2 0-2.1-.9-2.1-2.1 0-1.2.9-2.1 2.1-2.1 1.1 0 2 .9 2.1 2 .1 1.2-.8 2.2-2 2.2h-.1zm0-3.1c-.6 0-1 .5-.9 1 0 .2.1.5.3.6.2.2.4.2.7.2.5 0 .9-.5.9-1-.1-.4-.5-.8-1-.8z"
       fill="#111556"
       data-color="1"
       id="path44"
       style="fill:#86615c;fill-opacity:1" />
    <path
       d="M29.1 102.9c-1.2 0-2.1-.9-2.1-2.1 0-1.2.9-2.1 2.1-2.1 1.2 0 2.1.9 2.1 2.1 0 1.2-.9 2.1-2.1 2.1zm0-3c-.5 0-.9.4-.9.9s.4.9.9.9.9-.4.9-.9c.1-.5-.4-.9-.9-.9z"
       fill="#111556"
       data-color="1"
       id="path46"
       style="fill:#86615c;fill-opacity:1" />
    <path
       d="M69.4 68.5c-1.2 0-2.1-.9-2.1-2.1s.9-2.1 2.1-2.1 2.1.9 2.1 2.1c0 1.2-.9 2.1-2.1 2.1zm0-3c-.5 0-.9.4-.9.9s.4.9.9.9.9-.4.9-.9c.1-.5-.4-.9-.9-.9z"
       fill="#111556"
       data-color="1"
       id="path48"
       style="fill:#86615c;fill-opacity:1" />
    <path
       d="M101.9 75.1c-1.2 0-2.1-.9-2.1-2.1 0-1.2.9-2.1 2.1-2.1 1.2 0 2.1.9 2.1 2.1 0 1.2-.9 2.1-2.1 2.1zm0-3c-.5 0-1 .4-1 .9s.4.9.9.9 1-.4 1-.9-.4-.9-.9-.9z"
       fill="#111556"
       data-color="1"
       id="path50"
       style="fill:#86615c;fill-opacity:1" />
    <path
       d="M126.2 81.3c-1.2 0-2.1-.9-2.1-2.1 0-1.2.9-2.1 2.1-2.1 1.2 0 2.1.9 2.1 2.1 0 1.2-1 2.1-2.1 2.1zm0-3c-.5 0-.9.4-.9.9s.4.9.9.9.9-.4.9-.9-.4-.9-.9-.9z"
       fill="#111556"
       data-color="1"
       id="path52"
       style="fill:#86615c;fill-opacity:1" />
  </g>
</svg>
