<?xml version="1.0" encoding="UTF-8" standalone="no"?>
<svg
   data-bbox="20 20.471 160 158.929"
   viewBox="0 0 200 200"
   height="200"
   width="200"
   data-type="color"
   version="1.1"
   id="svg18"
   sodipodi:docname="project-2.svg"
   inkscape:version="1.1.2 (b8e25be833, 2022-02-05)"
   xmlns:inkscape="http://www.inkscape.org/namespaces/inkscape"
   xmlns:sodipodi="http://sodipodi.sourceforge.net/DTD/sodipodi-0.dtd"
   xmlns="http://www.w3.org/2000/svg"
   xmlns:svg="http://www.w3.org/2000/svg">
  <defs
     id="defs22" />
  <sodipodi:namedview
     id="namedview20"
     pagecolor="#ffffff"
     bordercolor="#666666"
     borderopacity="1.0"
     inkscape:pageshadow="2"
     inkscape:pageopacity="0.0"
     inkscape:pagecheckerboard="0"
     showgrid="false"
     inkscape:zoom="4.04"
     inkscape:cx="99.876238"
     inkscape:cy="100.12376"
     inkscape:window-width="1920"
     inkscape:window-height="1001"
     inkscape:window-x="-9"
     inkscape:window-y="-9"
     inkscape:window-maximized="1"
     inkscape:current-layer="svg18" />
  <g
     id="g16"
     style="fill:#ffeddf;fill-opacity:1">
    <path
       d="M21.2 99.7l66.5-.4c.7 0 1.2-.6 1.2-1.2 0-.7-.6-1.2-1.2-1.2l-65.2.4c.2-9.4 2.3-18.8 6-27.6l.1.1c2.8 1.7 6.2 2.1 9.4 1.3 2.6-.7 4.9-2.2 6.6-4.3L69 87c.4.3.9.4 1.3.2s.7-.6.7-1.1V27.7c5.5-2.1 11.7-3.6 18.5-4.4.2 6.3 5.3 11.5 11.7 12v15.4c0 .2 0 .3.1.5.1.5.6.9 1.2.9 25.9 0 47 17.1 47 38.2 0 .7.5 1.2 1.2 1.2.2 0 .3 0 .5-.1l14.9-6.5c.9 2.3 2.5 4.2 4.6 5.4 2.5 1.5 5.5 2 8.3 1.2.7-.2 1.1-.8.9-1.5v-.2c0-33.5-27.7-61.4-65.3-67.9-.2-.2-9.7-1.3-14.1-1.4C73 19.8 54.7 31.8 44.2 42 29.1 56.8 20 77.9 20 98.5c0 .7.5 1.2 1.2 1.2zm153.6-27.4c1.8 5.5 2.7 11.3 2.7 17-1.9.3-3.9-.1-5.5-1.1-2-1.2-3.4-3.1-3.9-5.3-1.1-4.6 1.6-9.3 6.2-10.4.2 0 .3-.1.5-.2zM115 24.5c28.3 5.2 50.8 22.8 59.1 45.7h-.3c-5.5 1.4-9.1 6.8-8.2 12.3l-13.6 6c-1.2-21.2-22.2-38.2-48.2-38.7V35.3c5.8-.6 10.4-5.1 11.2-10.8zM100.4 23c4.1.1 8.2.5 12.2 1.1-.6 5-5 8.9-10.2 8.9-5.6 0-10.2-4.4-10.3-9.8 2.7-.2 5.5-.3 8.3-.2zM45.9 43.8c5.4-5.2 12.9-10.9 22.7-15.1v54.8L45.8 64.6c1.4-2.7 1.7-5.8.9-8.7-.8-3-2.7-5.6-5.4-7.3 1.5-1.6 3-3.3 4.6-4.8zm-6.1 6.8c2.3 1.3 3.9 3.5 4.6 6 .7 2.5.3 5.2-1 7.5s-3.5 3.9-6 4.6c-2.5.7-5.2.3-7.5-1-.1-.1-.3-.1-.4-.1 2.6-6.2 6.1-11.9 10.3-17z"
       fill="#49568e"
       data-color="1"
       id="path2"
       style="fill:#ffeddf;fill-opacity:1" />
    <path
       d="M178.7 108.9h-29.1c-.7 0-1.2.5-1.2 1.2s.5 1.2 1.2 1.2h27.9c-.6 27-19.7 50.2-46.7 60.2v-58.2c5.4-.6 9.7-5.1 9.7-10.7 0-5.7-4.5-10.4-10.1-10.7-3.5-20.7-24.9-22.1-25.1-22.1-.7 0-1.3.5-1.3 1.2v37.4H50.1c-.7 0-1.2.5-1.2 1.2 0 22.1 21.5 40.1 48.2 40.6 0 0-.2 13.2 0 13.4-6.2 0-12.5 5.3-13.1 11.8-34.6-6.6-60.6-33.4-60.6-65.3 0-.7-.5-1.2-1.2-1.2s-1.2.5-1.2 1.2c0 38.2 35.7 69.3 79.5 69.3 43.9 0 79.5-31.1 79.5-69.3 0-.6-.6-1.2-1.3-1.2zm-78.3 68.2c-4.7 0-9.4-.4-14.1-1.1.4-5.4 5.3-9.8 11.2-9.8 6.2 0 11.3 4.7 11.3 10.5-2.7.2-5.5.4-8.4.4zm10.9-.7c-.1-6.5-5.1-11.8-11.8-12.6l.1-14.6c0-.2 0-.3-.1-.5-.1-.5-.6-.9-1.2-.9-25.4 0-46.2-16.5-47-36.9h53.8c.7 0 1.2-.5 1.2-1.2V72.5c4.4.6 18.7 3.9 21.5 19.7-5.1.8-9 5.3-9 10.6 0 5.5 4.1 10 9.4 10.7v58.8c0 .1 0 .2.1.3-5.5 1.8-11.2 3.1-17 3.8zm10.1-73.6c0-4.6 3.7-8.3 8.3-8.3 4.6 0 8.3 3.7 8.3 8.3s-3.7 8.3-8.3 8.3c-4.6 0-8.3-3.7-8.3-8.3z"
       fill="#49568e"
       data-color="1"
       id="path4"
       style="fill:#ffeddf;fill-opacity:1" />
    <path
       d="M85.5 38v47.5c0 .7.5 1.2 1.2 1.2s1.2-.5 1.2-1.2V38c0-.7-.5-1.2-1.2-1.2-.6 0-1.2.5-1.2 1.2z"
       fill="#49568e"
       data-color="1"
       id="path6"
       style="fill:#ffeddf;fill-opacity:1" />
    <path
       d="M112.8 123.4H79.6c-.7 0-1.2.5-1.2 1.2s.5 1.2 1.2 1.2h31.9v33.8c0 .7.5 1.2 1.2 1.3.7 0 1.2-.5 1.3-1.2v-35.1c0-.7-.6-1.2-1.2-1.2z"
       fill="#49568e"
       data-color="1"
       id="path8"
       style="fill:#ffeddf;fill-opacity:1" />
    <path
       d="M36.3 108.8c-.7 0-1.2.5-1.3 1.2 0 .3-.8 34.7 42.7 52.9.6.3 1.3 0 1.6-.7.3-.6 0-1.3-.7-1.6-41.8-17.5-41.2-50.2-41.2-50.6.1-.6-.4-1.1-1.1-1.2z"
       fill="#49568e"
       data-color="1"
       id="path10"
       style="fill:#ffeddf;fill-opacity:1" />
    <path
       d="M139.7 150.5c.3.6 1.1.8 1.6.5.6-.3 14.6-7.9 22.8-29.5.3-.6 0-1.3-.7-1.6-.6-.3-1.3 0-1.6.7v.1c-7.9 20.7-21.6 28.1-21.7 28.2-.5.3-.7 1-.4 1.6z"
       fill="#49568e"
       data-color="1"
       id="path12"
       style="fill:#ffeddf;fill-opacity:1" />
    <path
       d="M121.6 40.3c.2 0 19.8 3.5 32.5 23.6.4.6 1.1.7 1.7.4.6-.4.7-1.1.4-1.7-13.3-21-33.3-24.6-34.1-24.7-.7-.1-1.3.3-1.4 1-.2.7.2 1.3.9 1.4z"
       fill="#49568e"
       data-color="1"
       id="path14"
       style="fill:#ffeddf;fill-opacity:1" />
  </g>
</svg>
