<?xml version="1.0" encoding="UTF-8" standalone="no"?>
<svg
   data-bbox="74.493 57.259 416.764 452.968"
   viewBox="0 0 566.929 566.929"
   height="566.929"
   width="566.929"
   data-type="color"
   version="1.1"
   id="svg6"
   sodipodi:docname="city-1.svg"
   inkscape:version="1.1.2 (b8e25be833, 2022-02-05)"
   xmlns:inkscape="http://www.inkscape.org/namespaces/inkscape"
   xmlns:sodipodi="http://sodipodi.sourceforge.net/DTD/sodipodi-0.dtd"
   xmlns="http://www.w3.org/2000/svg"
   xmlns:svg="http://www.w3.org/2000/svg">
  <defs
     id="defs10" />
  <sodipodi:namedview
     id="namedview8"
     pagecolor="#ffffff"
     bordercolor="#666666"
     borderopacity="1.0"
     inkscape:pageshadow="2"
     inkscape:pageopacity="0.0"
     inkscape:pagecheckerboard="0"
     showgrid="false"
     inkscape:zoom="1.4252225"
     inkscape:cx="283.81533"
     inkscape:cy="283.81533"
     inkscape:window-width="1920"
     inkscape:window-height="1001"
     inkscape:window-x="-9"
     inkscape:window-y="-9"
     inkscape:window-maximized="1"
     inkscape:current-layer="svg6" />
  <g
     id="g4"
     style="fill:#0d1321;fill-opacity:1">
    <path
       d="M491.222 440.978c-.01-.048-.01-.098-.027-.144-.002-.006-.001-.013-.003-.019l-46.276-120.93a.997.997 0 0 0-1.389-.532l-59.331 30.426-3.344-192.302c-.001-.036-.018-.066-.022-.101a.945.945 0 0 0-.133-.381c-.02-.034-.024-.074-.048-.105l-32.068-42.224-.773-56.421a1 1 0 0 0-1-.986h-.014a1 1 0 0 0-.986 1.014l.774 56.48-29.535 52.191a.994.994 0 0 0-.13.492v98.023l-51.385-19.228a1 1 0 0 0-1.333.75l-16.894 89.079-14.107-14.493-.005-.004a.997.997 0 0 0-.34-.224 1 1 0 0 0-.365-.074l-.006-.001h-15.457c-.007-9.782-7.62-17.8-17.23-18.493v-50.993a1 1 0 1 0-2 0v50.958c-9.934.349-17.913 8.514-17.92 18.528h-15.456c-.028 0-.052.014-.079.016a.992.992 0 0 0-.202.041.92.92 0 0 0-.173.065.906.906 0 0 0-.154.104.94.94 0 0 0-.149.14c-.018.021-.043.033-.06.056l-24.296 34.207c-.12.169-.185.372-.185.579v83.702H75.493a1 1 0 0 0-1 1v68.053a1 1 0 1 0 2 0v-67.053h86.922v67.053a1 1 0 1 0 2 0V323.264h66.063v185.962a1 1 0 1 0 2 0V324.725l31.29 32.147-1.895 152.341a1 1 0 0 0 .988 1.013h.012a1 1 0 0 0 1-.987l.559-44.953h35.507l50.001-.008v44.948a1 1 0 1 0 2 0V273.074l26.045-107.749 5.981 343.918a1 1 0 0 0 1 .982h.018a1 1 0 0 0 .982-1.018l-2.064-118.674 104.355 51.262v67.43a1 1 0 1 0 2 0v-68.053c.001-.066-.022-.129-.035-.194zm-327.807-.805h-22.296V356.79l22.296-31.391v114.774zm18.456-118.909c.008-9.133 7.44-16.562 16.576-16.562 9.135 0 16.567 7.428 16.575 16.562h-33.151zm84.619 34.509l-17.522-18.003c.036-.076.074-.152.091-.239l16.882-89.013 50.975 19.074v151.983a44.563 44.563 0 0 0-8.498-.823c-20.569 0-37.904 14.205-42.833 33.381l1.189-95.651a1.01 1.01 0 0 0-.284-.709zm-.299 106.512c.53-22.991 19.269-41.531 42.227-41.531 23.113 0 41.978 18.537 42.512 41.523l-84.739.008zm84.75-12.215c-4.618-14.838-16.808-26.361-32.026-30.054V225.761l32.026 47.499v176.81zm.56-179.556l-32.587-48.33v-54.485l28.791-50.876 31.06 40.898-27.264 112.793zm33.415 117.798c-.017-.008-.035-.006-.052-.014l-.631-36.292 59.214-30.365 44.968 117.512-103.499-50.841z"
       fill="#3C3C3B"
       data-color="1"
       id="path2"
       style="fill:#0d1321;fill-opacity:1" />
  </g>
</svg>
