<?xml version="1.0" encoding="UTF-8" standalone="no"?>
<svg
   version="1.1"
   x="0px"
   y="0px"
   viewBox="0 0 100 100"
   enable-background="new 0 0 100 100"
   xml:space="preserve"
   id="svg4"
   sodipodi:docname="contact-2.svg"
   inkscape:version="1.1.2 (b8e25be833, 2022-02-05)"
   xmlns:inkscape="http://www.inkscape.org/namespaces/inkscape"
   xmlns:sodipodi="http://sodipodi.sourceforge.net/DTD/sodipodi-0.dtd"
   xmlns="http://www.w3.org/2000/svg"
   xmlns:svg="http://www.w3.org/2000/svg"><defs
     id="defs8" /><sodipodi:namedview
     id="namedview6"
     pagecolor="#ffffff"
     bordercolor="#666666"
     borderopacity="1.0"
     inkscape:pageshadow="2"
     inkscape:pageopacity="0.0"
     inkscape:pagecheckerboard="0"
     showgrid="false"
     inkscape:zoom="8.08"
     inkscape:cx="49.938119"
     inkscape:cy="50.061881"
     inkscape:window-width="1920"
     inkscape:window-height="1001"
     inkscape:window-x="-9"
     inkscape:window-y="-9"
     inkscape:window-maximized="1"
     inkscape:current-layer="svg4" /><path
     d="M26.636,46.889c-3.271,0-5.934-2.662-5.934-5.934s2.662-5.933,5.934-5.933s5.933,2.661,5.933,5.933  S29.908,46.889,26.636,46.889z M26.636,35.523c-2.996,0-5.434,2.438-5.434,5.433c0,2.996,2.438,5.434,5.434,5.434  c2.995,0,5.433-2.438,5.433-5.434C32.069,37.961,29.632,35.523,26.636,35.523z M38.833,56.484c0.187-0.221,0.2-0.419,0.179-0.547  c-0.722-4.271-3.526-8.13-7.319-10.07l-0.229,0.445c3.655,1.87,6.358,5.59,7.056,9.709c0.005,0.031-0.02,0.083-0.068,0.141  c-0.855,1.012-6.738,2.317-11.814,2.317s-10.96-1.307-11.815-2.318c-0.049-0.058-0.073-0.108-0.068-0.14  c0.697-4.119,3.4-7.839,7.056-9.709l-0.229-0.445c-3.793,1.94-6.598,5.8-7.319,10.07c-0.021,0.127-0.008,0.325,0.179,0.546  c1.045,1.236,7.2,2.496,12.197,2.496S37.788,57.72,38.833,56.484z M77.338,38.751H47.123v0.5h30.215V38.751z M85.338,46.751H47.123  v0.5h38.215V46.751z M77.338,54.751H47.123v0.5h30.215V54.751z"
     id="path2"
     style="fill:#86615c;fill-opacity:1" /></svg>
