<?xml version="1.0" encoding="UTF-8" standalone="no"?>
<svg
   version="1.1"
   x="0px"
   y="0px"
   viewBox="0 0 48 48"
   enable-background="new 0 0 48 48"
   xml:space="preserve"
   id="svg1145"
   sodipodi:docname="contact-4.svg"
   inkscape:version="1.1.2 (b8e25be833, 2022-02-05)"
   xmlns:inkscape="http://www.inkscape.org/namespaces/inkscape"
   xmlns:sodipodi="http://sodipodi.sourceforge.net/DTD/sodipodi-0.dtd"
   xmlns="http://www.w3.org/2000/svg"
   xmlns:svg="http://www.w3.org/2000/svg"><defs
     id="defs1149" /><sodipodi:namedview
     id="namedview1147"
     pagecolor="#ffffff"
     bordercolor="#666666"
     borderopacity="1.0"
     inkscape:pageshadow="2"
     inkscape:pageopacity="0.0"
     inkscape:pagecheckerboard="0"
     showgrid="false"
     inkscape:zoom="16.833333"
     inkscape:cx="23.970297"
     inkscape:cy="24.029703"
     inkscape:window-width="1920"
     inkscape:window-height="1001"
     inkscape:window-x="-9"
     inkscape:window-y="-9"
     inkscape:window-maximized="1"
     inkscape:current-layer="svg1145" /><g
     id="g1143"
     style="fill:#0d1321;fill-opacity:1"><path
       d="M22.342,37.141c-5.791,0-10.502-5.827-10.502-12.99c0-7.162,4.711-12.989,10.502-12.989s10.502,5.827,10.502,12.989   C32.844,31.313,28.133,37.141,22.342,37.141z M22.342,13.162c-4.688,0-8.502,4.93-8.502,10.989c0,6.06,3.814,10.99,8.502,10.99   c4.688,0,8.502-4.93,8.502-10.99C30.844,18.092,27.03,13.162,22.342,13.162z"
       id="path1137"
       style="fill:#0d1321;fill-opacity:1" /><path
       d="M31.846,34.689c-0.553,0-1-0.447-1-1V12.464c0-0.552,0.447-1,1-1s1,0.448,1,1v21.226   C32.846,34.242,32.398,34.689,31.846,34.689z"
       id="path1139"
       style="fill:#0d1321;fill-opacity:1" /><path
       d="M24,48C11.806,48,1.886,37.233,1.886,24S11.806,0,24,0c12.193,0,22.113,10.767,22.113,24c0,3.314-0.507,6.42-1.39,8.519   c-1.633,3.865-4.464,6.187-7.974,6.537c-1.833,0.183-3.273-0.192-4.293-1.115c-1.613-1.459-1.613-3.806-1.613-4.808   c0-0.553,0.447-1,1-1s1,0.447,1,1c0,0.799,0,2.461,0.955,3.324c0.584,0.529,1.514,0.732,2.752,0.608   c3.522-0.352,5.386-3.089,6.33-5.323c0.771-1.834,1.232-4.729,1.232-7.742c0-12.131-9.022-22-20.113-22S3.886,11.869,3.886,24   S12.909,46,24,46c2.855,0,5.618-0.643,8.209-1.91c0.497-0.244,1.096-0.036,1.338,0.459c0.242,0.496,0.037,1.095-0.459,1.338   C30.221,47.289,27.163,48,24,48z"
       id="path1141"
       style="fill:#0d1321;fill-opacity:1" /></g></svg>
