<?xml version="1.0" encoding="UTF-8" standalone="no"?>
<svg
   version="1.1"
   x="0px"
   y="0px"
   viewBox="0 0 100 100"
   enable-background="new 0 0 100 100"
   xml:space="preserve"
   id="svg1019"
   sodipodi:docname="contact-3.svg"
   inkscape:version="1.1.2 (b8e25be833, 2022-02-05)"
   xmlns:inkscape="http://www.inkscape.org/namespaces/inkscape"
   xmlns:sodipodi="http://sodipodi.sourceforge.net/DTD/sodipodi-0.dtd"
   xmlns="http://www.w3.org/2000/svg"
   xmlns:svg="http://www.w3.org/2000/svg"><defs
     id="defs1023" /><sodipodi:namedview
     id="namedview1021"
     pagecolor="#ffffff"
     bordercolor="#666666"
     borderopacity="1.0"
     inkscape:pageshadow="2"
     inkscape:pageopacity="0.0"
     inkscape:pagecheckerboard="0"
     showgrid="false"
     inkscape:zoom="8.08"
     inkscape:cx="49.938119"
     inkscape:cy="50.061881"
     inkscape:window-width="1920"
     inkscape:window-height="1001"
     inkscape:window-x="-9"
     inkscape:window-y="-9"
     inkscape:window-maximized="1"
     inkscape:current-layer="svg1019" /><g
     id="g997"><g
       id="g987"><g
         id="g981"><path
           fill="#000000"
           d="M59.776,60.522H40.221c-1.957,0-3.549-1.593-3.549-3.551V42.436c0-1.958,1.592-3.551,3.549-3.551h19.555     c1.959,0,3.553,1.593,3.553,3.551v14.536C63.329,58.93,61.735,60.522,59.776,60.522z M40.221,41.884     c-0.303,0-0.549,0.247-0.549,0.551v14.536c0,0.304,0.247,0.551,0.549,0.551h19.555c0.305,0,0.553-0.247,0.553-0.551V42.436     c0-0.304-0.248-0.551-0.553-0.551H40.221z"
           id="path979" /></g><g
         id="g985"><path
           fill="#000000"
           d="M50,53.05c-0.302,0-0.603-0.091-0.862-0.272L37.31,44.476c-0.678-0.476-0.842-1.412-0.366-2.09     c0.476-0.678,1.412-0.842,2.09-0.366L50,49.717l10.967-7.697c0.68-0.476,1.614-0.312,2.09,0.366     c0.476,0.678,0.312,1.614-0.366,2.09l-11.829,8.302C50.603,52.959,50.302,53.05,50,53.05z"
           id="path983" /></g></g><g
       id="g991"><path
         fill="#000000"
         d="M38.76,59.911c-0.355,0-0.711-0.125-0.997-0.38c-0.619-0.551-0.673-1.5-0.123-2.118l8.084-9.075    c0.551-0.619,1.5-0.673,2.118-0.123c0.619,0.551,0.673,1.5,0.123,2.118l-8.084,9.075C39.584,59.742,39.173,59.911,38.76,59.911z"
         id="path989" /></g><g
       id="g995"><path
         fill="#000000"
         d="M61.237,59.911c-0.398,0-0.795-0.157-1.09-0.469l-8.384-8.864c-0.569-0.602-0.543-1.551,0.059-2.121    c0.603-0.568,1.553-0.542,2.121,0.059l8.384,8.864c0.569,0.602,0.543,1.551-0.059,2.121    C61.978,59.775,61.607,59.911,61.237,59.911z"
         id="path993" /></g></g><g
     id="g1017"
     style="fill:#0d1321;fill-opacity:1"><g
       id="g1001"
       style="fill:#0d1321;fill-opacity:1"><path
         fill="#000000"
         d="M64.037,85.824H35.963c-3.871,0-7.02-3.149-7.02-7.02V21.195c0-3.871,3.149-7.02,7.02-7.02h28.073    c3.871,0,7.02,3.149,7.02,7.02v57.609C71.057,82.675,67.908,85.824,64.037,85.824z M35.963,17.176c-2.217,0-4.02,1.803-4.02,4.02    v57.609c0,2.217,1.803,4.02,4.02,4.02h28.073c2.217,0,4.02-1.803,4.02-4.02V21.195c0-2.216-1.803-4.02-4.02-4.02H35.963z"
         id="path999"
         style="fill:#0d1321;fill-opacity:1" /></g><g
       id="g1005"
       style="fill:#0d1321;fill-opacity:1"><path
         fill="#000000"
         d="M49.999,80.383c-2.873,0-5.21-2.338-5.21-5.212c0-2.874,2.337-5.211,5.21-5.211    c2.875,0,5.213,2.338,5.213,5.211C55.211,78.045,52.873,80.383,49.999,80.383z M49.999,72.96c-1.219,0-2.21,0.992-2.21,2.211    c0,1.22,0.991,2.212,2.21,2.212c1.22,0,2.213-0.992,2.213-2.212C52.211,73.952,51.219,72.96,49.999,72.96z"
         id="path1003"
         style="fill:#0d1321;fill-opacity:1" /></g><g
       id="g1015"
       style="fill:#0d1321;fill-opacity:1"><g
         id="g1009"
         style="fill:#0d1321;fill-opacity:1"><path
           fill="#000000"
           d="M51.88,24.114h-8.744c-0.829,0-1.5-0.671-1.5-1.5s0.671-1.5,1.5-1.5h8.744c0.829,0,1.5,0.671,1.5,1.5     S52.708,24.114,51.88,24.114z"
           id="path1007"
           style="fill:#0d1321;fill-opacity:1" /></g><g
         id="g1013"
         style="fill:#0d1321;fill-opacity:1"><path
           fill="#000000"
           d="M56.865,24.114h-0.526c-0.829,0-1.5-0.671-1.5-1.5s0.671-1.5,1.5-1.5h0.526c0.829,0,1.5,0.671,1.5,1.5     S57.693,24.114,56.865,24.114z"
           id="path1011"
           style="fill:#0d1321;fill-opacity:1" /></g></g></g></svg>
