<?xml version="1.0" encoding="UTF-8" standalone="no"?>
<svg
   version="1.1"
   x="0px"
   y="0px"
   viewBox="0 0 64 64"
   enable-background="new 0 0 64 64"
   xml:space="preserve"
   id="svg14"
   sodipodi:docname="project-3.svg"
   inkscape:version="1.1.2 (b8e25be833, 2022-02-05)"
   xmlns:inkscape="http://www.inkscape.org/namespaces/inkscape"
   xmlns:sodipodi="http://sodipodi.sourceforge.net/DTD/sodipodi-0.dtd"
   xmlns="http://www.w3.org/2000/svg"
   xmlns:svg="http://www.w3.org/2000/svg"><defs
     id="defs18" /><sodipodi:namedview
     id="namedview16"
     pagecolor="#ffffff"
     bordercolor="#666666"
     borderopacity="1.0"
     inkscape:pageshadow="2"
     inkscape:pageopacity="0.0"
     inkscape:pagecheckerboard="0"
     showgrid="false"
     inkscape:zoom="12.625"
     inkscape:cx="31.960396"
     inkscape:cy="32.039604"
     inkscape:window-width="1920"
     inkscape:window-height="1001"
     inkscape:window-x="-9"
     inkscape:window-y="-9"
     inkscape:window-maximized="1"
     inkscape:current-layer="svg14" /><g
     id="g12"
     style="fill:#ffeddf;fill-opacity:1"><g
       id="g10"
       style="fill:#ffeddf;fill-opacity:1"><path
         d="M58,9.5H6c-0.276,0-0.5,0.224-0.5,0.5v44c0,0.276,0.224,0.5,0.5,0.5h52c0.276,0,0.5-0.224,0.5-0.5V10    C58.5,9.724,58.276,9.5,58,9.5z M57.5,10.5v7h-51v-7H57.5z M6.5,53.5v-35h51v35H6.5z"
         id="path2"
         style="fill:#ffeddf;fill-opacity:1" /><path
         d="M10,14.5h2c0.276,0,0.5-0.224,0.5-0.5s-0.224-0.5-0.5-0.5h-2c-0.276,0-0.5,0.224-0.5,0.5S9.724,14.5,10,14.5z"
         id="path4"
         style="fill:#ffeddf;fill-opacity:1" /><path
         d="M16,14.5h2c0.276,0,0.5-0.224,0.5-0.5s-0.224-0.5-0.5-0.5h-2c-0.276,0-0.5,0.224-0.5,0.5S15.724,14.5,16,14.5z"
         id="path6"
         style="fill:#ffeddf;fill-opacity:1" /><path
         d="M22,14.5h2c0.276,0,0.5-0.224,0.5-0.5s-0.224-0.5-0.5-0.5h-2c-0.276,0-0.5,0.224-0.5,0.5S21.724,14.5,22,14.5z"
         id="path8"
         style="fill:#ffeddf;fill-opacity:1" /></g></g></svg>
