<?xml version="1.0" encoding="UTF-8" standalone="no"?>
<svg
   viewBox="0 0 100 100"
   version="1.1"
   xml:space="preserve"
   style=""
   x="0px"
   y="0px"
   fill-rule="evenodd"
   clip-rule="evenodd"
   stroke-linejoin="round"
   stroke-miterlimit="1.41421"
   id="svg8"
   sodipodi:docname="project-5.svg"
   inkscape:version="1.1.2 (b8e25be833, 2022-02-05)"
   xmlns:inkscape="http://www.inkscape.org/namespaces/inkscape"
   xmlns:sodipodi="http://sodipodi.sourceforge.net/DTD/sodipodi-0.dtd"
   xmlns="http://www.w3.org/2000/svg"
   xmlns:svg="http://www.w3.org/2000/svg"><defs
     id="defs12" /><sodipodi:namedview
     id="namedview10"
     pagecolor="#ffffff"
     bordercolor="#666666"
     borderopacity="1.0"
     inkscape:pageshadow="2"
     inkscape:pageopacity="0.0"
     inkscape:pagecheckerboard="0"
     showgrid="false"
     inkscape:zoom="8.08"
     inkscape:cx="49.938119"
     inkscape:cy="50.061881"
     inkscape:window-width="1920"
     inkscape:window-height="1001"
     inkscape:window-x="-9"
     inkscape:window-y="-9"
     inkscape:window-maximized="1"
     inkscape:current-layer="svg8" /><g
     transform="matrix(1,0,0,1,-2,0)"
     id="g6"
     style="fill:#ffeddf;fill-opacity:1"><g
       id="g4"
       style="fill:#ffeddf;fill-opacity:1"><path
         d="M68.912,68.566C68.824,69.134 68.727,69.698 68.631,70.254C67.931,74.29 67.328,77.776 70.406,79.807C70.867,80.112 70.994,80.732 70.69,81.193C70.498,81.484 70.179,81.642 69.854,81.642C69.664,81.642 69.474,81.588 69.304,81.477C65.133,78.725 65.944,74.043 66.659,69.913C66.738,69.457 66.814,69.009 66.886,68.567L14.859,68.567C14.306,68.567 13.859,68.12 13.859,67.567C13.859,67.014 14.306,66.567 14.859,66.567L64.577,66.567L64.577,66.566L67.158,66.566C67.427,63.729 67.011,61.33 64.283,59.772C64.226,60.271 63.819,60.663 63.305,60.663L30.778,60.663C30.225,60.663 29.778,60.216 29.778,59.663L29.778,53.983L26.83,53.983C26.855,54.2 26.871,54.42 26.871,54.644C26.871,55.085 26.808,55.547 26.678,56.054C26.639,56.204 26.559,56.33 26.464,56.443C26.728,56.932 26.871,57.46 26.871,58.006C26.871,58.372 26.796,58.745 26.644,59.149C26.497,59.538 26.124,59.796 25.708,59.796L16.606,59.796C16.189,59.796 15.815,59.537 15.669,59.146C15.517,58.741 15.444,58.368 15.444,58.006C15.444,57.46 15.586,56.932 15.85,56.443C15.754,56.33 15.674,56.203 15.635,56.052C15.506,55.543 15.444,55.083 15.444,54.644C15.444,54.42 15.46,54.2 15.485,53.983L9.273,53.983C8.72,53.983 8.273,53.536 8.273,52.983C8.273,52.43 8.72,51.983 9.273,51.983L16.107,51.983C16.829,50.616 18.09,49.58 19.605,49.151C20.413,47.728 23.432,43.039 29.506,40.254C29.595,40.214 29.686,40.205 29.777,40.191L29.777,34.593C29.777,34.04 30.224,33.593 30.777,33.593L37.23,33.593C36.596,32.202 36.262,30.69 36.262,29.137C36.262,23.194 41.097,18.358 47.04,18.358C52.983,18.358 57.819,23.194 57.819,29.137C57.819,29.437 57.803,29.735 57.779,30.032C57.817,30.204 57.826,30.382 57.766,30.561C57.752,30.601 57.726,30.633 57.708,30.671C57.564,31.684 57.274,32.665 56.851,33.593L63.303,33.593C63.856,33.593 64.303,34.04 64.303,34.593L64.303,40.178C64.41,40.187 64.519,40.203 64.623,40.25C65.564,40.673 66.479,41.212 67.332,41.826L67.332,26.478C67.337,26.372 67.347,26.272 67.381,26.169C67.479,25.868 67.721,25.625 68.023,25.527C68.125,25.494 68.225,25.484 68.332,25.478L86.791,25.478C86.825,25.48 86.86,25.482 86.895,25.484C87.001,25.501 87.099,25.521 87.197,25.565C87.454,25.679 87.655,25.902 87.742,26.169C87.775,26.272 87.785,26.372 87.791,26.478L87.791,51.981L94.727,51.981C95.28,51.981 95.727,52.43 95.727,52.983C95.727,53.536 95.28,53.983 94.727,53.983L87.791,53.983L87.791,57.2C87.785,57.306 87.775,57.407 87.742,57.509C87.644,57.811 87.401,58.053 87.1,58.151C86.997,58.184 86.897,58.194 86.791,58.2L85.255,58.2C85.78,59.651 86.364,61.081 86.924,62.518C87.067,62.889 87.209,63.259 87.349,63.631C87.541,64.147 87.728,64.665 87.904,65.187C88.028,65.555 88.147,65.924 88.259,66.296C88.286,66.386 88.312,66.476 88.338,66.566L92.068,66.566C92.621,66.566 93.068,67.013 93.068,67.566C93.068,68.119 92.621,68.566 92.068,68.566L88.826,68.566C89.127,70.133 89.223,71.745 88.9,73.315C88.826,73.675 88.73,74.032 88.613,74.381C88.443,74.882 88.229,75.369 87.972,75.832C87.559,76.579 87.039,77.256 86.452,77.874L86.366,77.962C86.341,77.985 86.318,78.01 86.292,78.031C86.188,78.118 86.067,78.184 85.938,78.223C85.841,78.252 85.739,78.267 85.638,78.265C85.224,78.261 84.847,77.992 84.707,77.603C84.673,77.507 84.653,77.407 84.649,77.305C84.643,77.136 84.68,76.966 84.756,76.815C84.796,76.735 84.812,76.718 84.865,76.645C84.98,76.513 85.104,76.39 85.221,76.26C85.642,75.785 86.014,75.27 86.307,74.706C86.468,74.395 86.606,74.073 86.718,73.741C86.791,73.524 86.853,73.303 86.905,73.08C87.247,71.595 87.104,70.042 86.785,68.566L68.912,68.566ZM80.446,58.2L80.446,62.065C81.181,62.078 81.915,62.096 82.649,62.119C82.712,62.125 82.774,62.132 82.835,62.148C82.977,62.185 83.111,62.253 83.224,62.346C83.554,62.619 83.674,63.087 83.516,63.485C83.478,63.582 83.424,63.674 83.357,63.754C83.277,63.851 83.178,63.933 83.068,63.993C82.937,64.065 82.797,64.101 82.649,64.115C79.28,64.221 75.907,64.117 72.536,64.117C72.472,64.115 72.411,64.111 72.348,64.099C72.204,64.072 72.066,64.012 71.948,63.926C71.863,63.864 71.788,63.789 71.727,63.705C71.665,63.62 71.617,63.525 71.585,63.426C71.48,63.103 71.549,62.741 71.765,62.479C71.845,62.382 71.944,62.301 72.054,62.24C72.185,62.169 72.325,62.133 72.473,62.119C73.207,62.096 73.941,62.078 74.676,62.065L74.676,58.2L68.332,58.2C68.225,58.194 68.125,58.184 68.023,58.151C67.721,58.053 67.479,57.811 67.381,57.509C67.347,57.407 67.337,57.306 67.332,57.2L67.332,56.042C66.291,56.459 65.233,56.708 64.304,56.831L64.304,57.55C68.801,59.537 69.463,62.984 69.16,66.566L86.25,66.566C86.105,66.104 85.95,65.646 85.788,65.19C85.556,64.536 85.31,63.888 85.06,63.241C84.714,62.35 84.36,61.462 84.013,60.571C83.867,60.194 83.723,59.817 83.581,59.439C83.428,59.028 83.278,58.615 83.134,58.2L80.446,58.2ZM78.446,42.872L76.676,42.872L76.676,57.2L76.676,57.2L76.676,62.041C77.266,62.038 77.856,62.038 78.446,62.041L78.446,42.872ZM62.301,35.593L31.775,35.593L31.775,58.661L62.301,58.661L62.301,35.593ZM24.219,56.805L18.094,56.805C17.83,57.036 17.539,57.376 17.463,57.795L24.851,57.795C24.775,57.376 24.484,57.036 24.219,56.805ZM85.791,27.478L69.332,27.478L69.332,56.2L74.676,56.2L74.676,41.872C74.676,41.86 74.677,41.848 74.678,41.836L74.681,41.767C74.684,41.75 74.687,41.733 74.69,41.716C74.699,41.653 74.714,41.591 74.736,41.53C74.743,41.512 74.749,41.495 74.757,41.478C74.759,41.474 74.76,41.469 74.762,41.465C74.83,41.313 74.935,41.181 75.065,41.081L75.066,41.08L75.066,41.08L75.067,41.079L75.069,41.078C75.149,41.016 75.238,40.967 75.334,40.932C75.336,40.931 75.339,40.93 75.342,40.929L75.342,40.929L75.343,40.929L75.344,40.928L75.345,40.928C75.352,40.926 75.359,40.923 75.367,40.921C75.421,40.903 75.475,40.892 75.53,40.885C75.578,40.878 75.626,40.874 75.676,40.872L75.676,40.872L75.677,40.872C76.932,40.872 78.188,40.822 79.442,40.872L79.446,40.872L79.458,40.872C79.483,40.874 79.508,40.875 79.533,40.876C79.556,40.879 79.578,40.882 79.6,40.886C79.652,40.893 79.703,40.904 79.755,40.921C79.783,40.93 79.811,40.94 79.837,40.952C79.848,40.956 79.858,40.961 79.869,40.966C80.029,41.04 80.165,41.157 80.265,41.299C80.322,41.379 80.367,41.468 80.397,41.563C80.399,41.567 80.4,41.571 80.401,41.574C80.405,41.587 80.409,41.6 80.412,41.613C80.435,41.699 80.442,41.783 80.446,41.871L80.446,41.872L80.446,56.2L82.494,56.2C82.385,55.821 82.284,55.441 82.192,55.058C81.942,54.016 81.758,52.956 81.687,51.886C81.663,51.531 81.652,51.176 81.654,50.821C81.655,50.703 81.657,50.584 81.661,50.466C81.665,50.36 81.668,50.255 81.693,50.151C81.775,49.819 82.028,49.546 82.353,49.439C82.452,49.407 82.549,49.396 82.652,49.39C82.686,49.391 82.719,49.392 82.753,49.393C82.855,49.408 82.951,49.426 83.047,49.466C83.363,49.596 83.595,49.888 83.651,50.225C83.668,50.328 83.663,50.429 83.66,50.532C83.656,50.667 83.654,50.801 83.654,50.936C83.655,51.071 83.657,51.207 83.661,51.342C83.726,52.997 84.094,54.621 84.58,56.2L85.791,56.2L85.791,27.478ZM24.864,54.805C24.867,54.75 24.869,54.697 24.869,54.643C24.869,52.596 23.203,50.93 21.156,50.93C19.109,50.93 17.444,52.596 17.444,54.643C17.444,54.697 17.446,54.75 17.449,54.805L24.864,54.805ZM67.332,44.4C66.455,43.618 65.429,42.887 64.301,42.318L64.301,46.854L64.772,46.739C65.306,46.604 65.849,46.938 65.98,47.474C66.111,48.01 65.782,48.551 65.245,48.682L64.302,48.912L64.302,54.801C65.102,54.671 66.247,54.406 67.332,53.864L67.332,44.4ZM29.775,51.981L29.775,42.352C25.751,44.354 23.269,47.273 22.064,49.009C23.863,49.298 25.384,50.425 26.207,51.981L29.775,51.981ZM47.039,43.396C44.982,43.396 43.309,45.07 43.309,47.126C43.309,49.182 44.983,50.856 47.039,50.856C49.095,50.856 50.769,49.182 50.769,47.126C50.769,45.07 49.095,43.396 47.039,43.396ZM47.039,48.857C46.085,48.857 45.309,48.081 45.309,47.127C45.309,46.173 46.085,45.397 47.039,45.397C47.993,45.397 48.769,46.173 48.769,47.127C48.769,48.081 47.993,48.857 47.039,48.857ZM54.605,33.593C55.104,32.747 55.436,31.824 55.628,30.867C52.963,29.869 51.139,28.733 50.303,28.144C47.635,29.453 43.919,31.015 38.973,32.597C39.119,32.938 39.284,33.271 39.475,33.593L54.605,33.593ZM47.039,20.357C49.859,20.357 52.366,21.699 53.973,23.772C52.268,24.92 47.476,27.77 38.413,30.677C38.323,30.171 38.261,29.658 38.261,29.137C38.26,24.296 42.198,20.357 47.039,20.357ZM55.801,28.801C54.305,28.203 53.155,27.578 52.349,27.086C53.544,26.432 54.423,25.885 55.014,25.489C55.481,26.504 55.756,27.622 55.801,28.801Z"
         id="path2"
         style="fill:#ffeddf;fill-opacity:1" /></g></g></svg>
