<?xml version="1.0" encoding="UTF-8" standalone="no"?>
<svg
   viewBox="0 0 100 100"
   version="1.1"
   x="0px"
   y="0px"
   id="svg6"
   sodipodi:docname="project-4.svg"
   inkscape:version="1.1.2 (b8e25be833, 2022-02-05)"
   xmlns:inkscape="http://www.inkscape.org/namespaces/inkscape"
   xmlns:sodipodi="http://sodipodi.sourceforge.net/DTD/sodipodi-0.dtd"
   xmlns="http://www.w3.org/2000/svg"
   xmlns:svg="http://www.w3.org/2000/svg">
  <defs
     id="defs10" />
  <sodipodi:namedview
     id="namedview8"
     pagecolor="#ffffff"
     bordercolor="#666666"
     borderopacity="1.0"
     inkscape:pageshadow="2"
     inkscape:pageopacity="0.0"
     inkscape:pagecheckerboard="0"
     showgrid="false"
     inkscape:zoom="8.08"
     inkscape:cx="49.938119"
     inkscape:cy="50.061881"
     inkscape:window-width="1920"
     inkscape:window-height="1001"
     inkscape:window-x="-9"
     inkscape:window-y="-9"
     inkscape:window-maximized="1"
     inkscape:current-layer="svg6" />
  <g
     transform="translate(0,-952.3622)"
     id="g4"
     style="fill:#ffeddf;fill-opacity:1">
    <path
       style="color:#000000;font-style:normal;font-variant:normal;font-weight:normal;font-stretch:normal;font-size:medium;line-height:normal;font-family:sans-serif;text-indent:0;text-align:start;text-decoration:none;text-decoration-line:none;text-decoration-style:solid;text-decoration-color:#000000;letter-spacing:normal;word-spacing:normal;text-transform:none;direction:ltr;block-progression:tb;writing-mode:lr-tb;baseline-shift:baseline;text-anchor:start;white-space:normal;clip-rule:nonzero;display:inline;overflow:visible;visibility:visible;opacity:1;isolation:auto;mix-blend-mode:normal;color-interpolation:sRGB;color-interpolation-filters:linearRGB;solid-color:#000000;solid-opacity:1;fill:#ffeddf;fill-opacity:1;fill-rule:nonzero;stroke:none;stroke-width:1.50000012;stroke-linecap:round;stroke-linejoin:round;stroke-miterlimit:4;stroke-dasharray:none;stroke-dashoffset:0;stroke-opacity:1;color-rendering:auto;image-rendering:auto;shape-rendering:auto;text-rendering:auto;enable-background:accumulate"
       d="m 35.902529,966.36688 c -5.717115,0.11787 -11.338421,2.42278 -15.548829,6.73841 -7.185762,7.36519 -8.416355,18.69533 -2.976562,27.43031 5.202783,8.3539 15.226729,12.2632 24.646485,9.7893 -0.476699,1.8153 -0.734376,3.7191 -0.734376,5.6837 0,12.3375 10.01787,22.3536 22.355469,22.3536 12.3376,0 22.355469,-10.0161 22.355469,-22.3536 0,-12.3382 -10.017869,-22.35618 -22.355469,-22.35618 -1.964701,0 -3.869585,0.2558 -5.685547,0.7323 2.529683,-9.63676 -1.618897,-19.84068 -10.257812,-24.92988 -3.324674,-1.95861 -6.990929,-2.97048 -10.654297,-3.08215 -0.381601,-0.0116 -0.76339,-0.0136 -1.144531,-0.006 z m 1.095703,1.50001 c 3.416812,0.10453 6.837363,1.05033 9.941406,2.87896 8.277448,4.87631 12.151081,14.76579 9.388672,23.96737 a 0.75044733,0.75046007 0 0 0 -0.0293,0.1832 c -6.416996,2.2356 -11.503776,7.31198 -13.751953,13.72308 -9.049999,2.8165 -18.87206,-0.8094 -23.896485,-8.87688 -5.078799,-8.1554 -3.933513,-18.71398 2.775391,-25.59047 4.193065,-4.29781 9.877579,-6.45943 15.572266,-6.28526 z m -0.644531,10.34001 c -2.965617,0 -5.384766,2.42111 -5.384766,5.38679 0,2.96603 2.419149,5.38483 5.384766,5.38483 2.965616,0 5.386718,-2.4188 5.386718,-5.38483 0,-2.96568 -2.421102,-5.38679 -5.386718,-5.38679 z m 0,1.49999 c 2.154955,0 3.886718,1.73183 3.886718,3.8868 0,2.15505 -1.731763,3.88463 -3.886718,3.88463 -2.154956,0 -3.884766,-1.72958 -3.884766,-3.88463 0,-2.15497 1.72981,-3.8868 3.884766,-3.8868 z m -9.304688,8.75413 0,0 a 0.75007506,0.75008781 0 0 0 -0.716797,0.7381 l 0,9.2719 a 0.75007506,0.75008781 0 0 0 0.283203,0.5877 0.75007506,0.75008781 0 0 0 0.0625,0.043 0.75007506,0.75008781 0 0 0 0.06445,0.037 0.75007506,0.75008781 0 0 0 0.06836,0.029 0.75007506,0.75008781 0 0 0 0.07031,0.025 0.75007506,0.75008781 0 0 0 0.201172,0.025 l 18.542969,0 a 0.75007506,0.75008781 0 0 0 0.148438,-0.016 0.75007506,0.75008781 0 0 0 0.07422,-0.018 0.75007506,0.75008781 0 0 0 0.201172,-0.097 0.75007506,0.75008781 0 0 0 0.06055,-0.045 0.75007506,0.75008781 0 0 0 0.103516,-0.1097 0.75007506,0.75008781 0 0 0 0.04297,-0.06 0.75007506,0.75008781 0 0 0 0.0918,-0.2052 0.75007506,0.75008781 0 0 0 0.02539,-0.1465 0.75007506,0.75008781 0 0 0 0.002,-0.052 l 0,-9.2718 a 0.75007506,0.75008781 0 0 0 -0.0039,-0.075 0.75007506,0.75008781 0 0 0 -0.0332,-0.1446 0.75007506,0.75008781 0 0 0 -0.02539,-0.069 0.75007506,0.75008781 0 0 0 -0.0332,-0.067 0.75007506,0.75008781 0 0 0 -0.08789,-0.1213 0.75007506,0.75008781 0 0 0 -0.107422,-0.1033 0.75007506,0.75008781 0 0 0 -0.126953,-0.077 0.75007506,0.75008781 0 0 0 -0.07031,-0.031 0.75007506,0.75008781 0 0 0 -0.292969,-0.044 0.75007506,0.75008781 0 0 0 -0.220703,0.043 0.75007506,0.75008781 0 0 0 -0.07031,0.027 0.75007506,0.75008781 0 0 0 -0.06445,0.035 0.75007506,0.75008781 0 0 0 -0.261719,0.2657 0.75007506,0.75008781 0 0 0 -0.0332,0.066 0.75007506,0.75008781 0 0 0 -0.02734,0.067 0.75007506,0.75008781 0 0 0 -0.03516,0.1445 0.75007506,0.75008781 0 0 0 -0.0059,0.075 0.75007506,0.75008781 0 0 0 0,0.01 l 0,8.5213 -17.042969,0 0,-8.5213 a 0.75007506,0.75008781 0 0 0 -0.783203,-0.7381 z m 36.595703,6.6916 c 11.526938,0 20.855469,9.32828 20.855469,20.85598 0,11.5271 -9.328531,20.8534 -20.855469,20.8534 -11.526938,0 -20.855467,-9.3263 -20.855469,-20.8534 0,-11.5277 9.328531,-20.85598 20.855469,-20.85598 z m 3.482422,7.92198 a 0.750075,0.75008775 0 0 0 -0.697265,0.5529 l -7.001954,24.3441 a 0.75012128,0.75013399 0 0 0 1.441407,0.4155 l 7.001953,-24.3441 a 0.750075,0.75008775 0 0 0 -0.744141,-0.9684 z m -9.697265,5.2204 a 0.75007494,0.75008769 0 0 0 -0.515626,0.2252 l -6.921874,6.8729 a 0.75007494,0.75008769 0 0 0 -0.296876,0.4684 0.75007494,0.75008769 0 0 0 -0.0078,0.046 0.75007494,0.75008769 0 0 0 0.326172,0.7323 0.75007494,0.75008769 0 0 0 0.0039,0 l 6.896484,6.8496 a 0.75007494,0.75008769 0 1 0 1.056641,-1.0639 l -6.46875,-6.4245 6.46875,-6.4218 a 0.75007494,0.75008769 0 0 0 -0.541015,-1.2891 z m 12.419921,0 a 0.750075,0.75008775 0 0 0 -0.517578,1.2891 l 6.466797,6.4245 -6.466797,6.4219 a 0.750075,0.75008775 0 1 0 1.056641,1.0646 l 7.003906,-6.9554 a 0.750075,0.75008775 0 0 0 0,-1.0647 l -7.003906,-6.9548 a 0.750075,0.75008775 0 0 0 -0.539063,-0.2252 z"
       id="path2" />
  </g>
</svg>
